<svg width="36" height="36" viewBox="0 0 36 36" fill="none" xmlns="http://www.w3.org/2000/svg">
<path fill-rule="evenodd" clip-rule="evenodd" d="M25.6541 0H10.0489C2.69173 0 0 2.69173 0 10.0489V25.6654C0 33.0226 2.69173 35.7143 10.0489 35.7143H25.6541C33.0113 35.7143 35.7068 33.0226 35.7068 25.6654V10.0489C35.7143 2.69173 33.0226 0 25.6541 0Z" fill="#C8102E"/>
<path d="M7.07142 17.8571H8.01879V22.53H7.07142V20.6315H4.93232V22.53H3.98495V17.8571H4.93232V19.7368H7.07142V17.8571ZM12.4098 20.53C12.4098 21.2819 12.0338 21.6954 11.3496 21.6954C10.6654 21.6954 10.2819 21.2819 10.2819 20.4886V17.8571H9.33458V20.5262C9.33458 21.8383 10.0639 22.5901 11.3346 22.5901C12.6053 22.5901 13.3571 21.8383 13.3571 20.4849V17.8571H12.4098V20.53ZM23.3571 21.0676L22.297 17.8571H21.5188L20.4662 21.0713L19.4323 17.8571H18.4248L20.0526 22.53H20.8383L21.8947 19.4623L22.9549 22.53H23.7481L25.3759 17.8571H24.391L23.3571 21.0676ZM27.0714 20.5149H28.797V19.6691H27.0714V18.7142H29.5752V17.8571H26.1391V22.5187H29.6654V21.6766H27.0714V20.5149ZM30.7932 22.5187H31.7293V17.8571H30.7932V22.5187ZM15.2293 21.5525L14.8045 22.5225H13.8383L15.8797 17.8571H16.7143L18.7631 22.5225H17.7857L17.3834 21.5563L15.2293 21.5525ZM15.5827 20.7104H17.0075L16.2932 19.0413L15.5827 20.7104Z" fill="white"/>
<path d="M17.8572 11.9137C16.2811 11.9127 14.7699 11.2862 13.6555 10.1718C12.5411 9.05733 11.9146 7.54613 11.9136 5.97009H12.7519C12.7519 7.32409 13.2898 8.62264 14.2472 9.58006C15.2046 10.5375 16.5032 11.0754 17.8572 11.0754C19.2112 11.0754 20.5097 10.5375 21.4671 9.58006C22.4246 8.62264 22.9624 7.32409 22.9624 5.97009H23.8008C23.7998 7.54613 23.1733 9.05733 22.0588 10.1718C20.9444 11.2862 19.4332 11.9127 17.8572 11.9137Z" fill="white"/>
</svg>
