<svg width="20" height="20" viewBox="0 0 20 20" fill="none" xmlns="http://www.w3.org/2000/svg">
<path d="M11.667 15.8333V5.83333M11.667 15.8333H13.3337M11.667 15.8333H7.50033M11.667 5.83333C11.667 3.99238 10.1746 2.5 8.33366 2.5H5.00033C3.15938 2.5 1.66699 3.99238 1.66699 5.83333V12.5C1.66699 14.0544 2.73088 15.3602 4.1702 15.7291M11.667 5.83333H14.3412C14.7647 5.83333 15.1722 5.9945 15.4811 6.2841L17.8069 8.46449C18.143 8.77957 18.3337 9.2197 18.3337 9.68039V14.1667C18.3337 15.0871 17.5875 15.8333 16.667 15.8333M16.667 15.8333C16.667 16.7538 15.9208 17.5 15.0003 17.5C14.0799 17.5 13.3337 16.7538 13.3337 15.8333M16.667 15.8333C16.667 14.9129 15.9208 14.1667 15.0003 14.1667C14.0799 14.1667 13.3337 14.9129 13.3337 15.8333M7.50033 15.8333C7.50033 16.7538 6.75413 17.5 5.83366 17.5C4.91318 17.5 4.16699 16.7538 4.16699 15.8333C4.16699 15.7983 4.16807 15.7636 4.1702 15.7291M7.50033 15.8333C7.50033 14.9129 6.75413 14.1667 5.83366 14.1667C4.94818 14.1667 4.22398 14.8572 4.1702 15.7291" stroke="white" stroke-width="1.6"/>
<path d="M8.33366 6.66667L6.66699 6.66667" stroke="white" stroke-width="1.5" stroke-linecap="round" stroke-linejoin="round"/>
<path d="M8.33333 10L5 10" stroke="white" stroke-width="1.5" stroke-linecap="round" stroke-linejoin="round"/>
</svg>
